<?xml version="1.0" standalone="no"?>
<!DOCTYPE svg PUBLIC "-//W3C//DTD SVG 20010904//EN"
 "http://www.w3.org/TR/2001/REC-SVG-20010904/DTD/svg10.dtd">
<svg version="1.0" xmlns="http://www.w3.org/2000/svg"
 width="260.000000pt" height="260.000000pt" viewBox="0 0 260.000000 260.000000"
 preserveAspectRatio="xMidYMid meet">
<metadata>
Created by potrace 1.11, written by Peter Selinger 2001-2013
</metadata>
<g transform="translate(0.000000,260.000000) scale(0.100000,-0.100000)"
fill="#000000" stroke="none">
<path d="M1201 2579 c-69 -28 -1010 -576 -1039 -605 l-32 -34 0 -641 c0 -572
2 -644 16 -668 9 -15 24 -32 33 -38 44 -27 967 -556 1001 -573 54 -27 156 -27
210 0 133 68 990 567 1015 591 l30 29 3 193 c3 187 3 192 -18 209 -12 10 -27
18 -34 18 -6 0 -45 -19 -86 -43 -41 -24 -272 -156 -512 -295 -489 -282 -489
-282 -579 -240 -102 47 -634 358 -656 384 l-23 25 0 405 c0 328 3 410 14 432
10 20 102 78 340 216 180 103 344 193 365 198 25 6 51 6 77 -1 21 -6 179 -91
349 -189 295 -169 310 -179 313 -209 4 -39 19 -28 -348 -239 -380 -218 -338
-213 -601 -61 -102 59 -197 107 -211 107 -13 0 -34 -10 -46 -23 -21 -22 -22
-33 -22 -171 l0 -148 32 -32 c44 -43 394 -242 451 -256 33 -9 55 -9 88 0 58
16 1046 583 1082 621 l27 29 0 185 0 185 -32 34 c-30 31 -975 580 -1042 605
-34 13 -132 13 -165 0z"/>
<path d="M2330 1351 c-341 -199 -931 -537 -964 -552 -52 -24 -110 -24 -162 0
-23 11 -120 65 -216 120 -96 56 -181 101 -189 101 -8 0 -20 -5 -27 -12 -13
-13 -16 -126 -4 -144 4 -6 106 -69 227 -140 l220 -129 70 0 70 0 300 176 c165
97 392 229 505 294 309 177 280 153 280 235 0 58 -3 71 -19 80 -25 13 -15 16
-91 -29z"/>
</g>
</svg>
